<mxfile host="app.diagrams.net" modified="2021-07-31T03:13:24.249Z" agent="5.0 (Windows NT 10.0; Win64; x64) AppleWebKit/537.36 (KHTML, like Gecko) Chrome/92.0.4515.107 Safari/537.36" etag="7WXHoyu6F_dngnDIUead" version="14.9.3" type="github">
  <diagram id="bVovHb_YyVf1AmO7mBaJ" name="Page-1">
    <mxGraphModel dx="754" dy="358" grid="1" gridSize="10" guides="1" tooltips="1" connect="1" arrows="1" fold="1" page="1" pageScale="1" pageWidth="850" pageHeight="1100" math="0" shadow="0">
      <root>
        <mxCell id="0" />
        <mxCell id="1" parent="0" />
        <mxCell id="RqQD2__YrJlT9d0yLTFM-1" value="&lt;font style=&quot;font-size: 15px&quot;&gt;Header&lt;/font&gt;" style="rounded=1;whiteSpace=wrap;html=1;" vertex="1" parent="1">
          <mxGeometry x="365" y="140" width="120" height="60" as="geometry" />
        </mxCell>
        <mxCell id="RqQD2__YrJlT9d0yLTFM-11" style="edgeStyle=orthogonalEdgeStyle;rounded=0;orthogonalLoop=1;jettySize=auto;html=1;exitX=1;exitY=0.5;exitDx=0;exitDy=0;" edge="1" parent="1" source="RqQD2__YrJlT9d0yLTFM-2" target="RqQD2__YrJlT9d0yLTFM-4">
          <mxGeometry relative="1" as="geometry" />
        </mxCell>
        <mxCell id="RqQD2__YrJlT9d0yLTFM-12" style="edgeStyle=orthogonalEdgeStyle;rounded=0;orthogonalLoop=1;jettySize=auto;html=1;exitX=1;exitY=0.5;exitDx=0;exitDy=0;entryX=0;entryY=0.5;entryDx=0;entryDy=0;" edge="1" parent="1" source="RqQD2__YrJlT9d0yLTFM-2" target="RqQD2__YrJlT9d0yLTFM-5">
          <mxGeometry relative="1" as="geometry" />
        </mxCell>
        <mxCell id="RqQD2__YrJlT9d0yLTFM-2" value="&lt;font style=&quot;font-size: 15px&quot;&gt;Post List&lt;br&gt;&lt;/font&gt;" style="rounded=1;whiteSpace=wrap;html=1;" vertex="1" parent="1">
          <mxGeometry x="365" y="230" width="120" height="60" as="geometry" />
        </mxCell>
        <mxCell id="RqQD2__YrJlT9d0yLTFM-3" value="&lt;font style=&quot;font-size: 15px&quot;&gt;Footer&lt;/font&gt;" style="rounded=1;whiteSpace=wrap;html=1;" vertex="1" parent="1">
          <mxGeometry x="365" y="320" width="120" height="60" as="geometry" />
        </mxCell>
        <mxCell id="RqQD2__YrJlT9d0yLTFM-4" value="&lt;font style=&quot;font-size: 15px&quot;&gt;Post&lt;/font&gt;" style="rounded=1;whiteSpace=wrap;html=1;" vertex="1" parent="1">
          <mxGeometry x="610" y="190" width="120" height="60" as="geometry" />
        </mxCell>
        <mxCell id="RqQD2__YrJlT9d0yLTFM-5" value="&lt;font style=&quot;font-size: 15px&quot;&gt;Post&lt;/font&gt;" style="rounded=1;whiteSpace=wrap;html=1;" vertex="1" parent="1">
          <mxGeometry x="610" y="280" width="120" height="60" as="geometry" />
        </mxCell>
        <mxCell id="RqQD2__YrJlT9d0yLTFM-8" style="edgeStyle=orthogonalEdgeStyle;rounded=0;orthogonalLoop=1;jettySize=auto;html=1;exitX=1;exitY=0.5;exitDx=0;exitDy=0;entryX=0;entryY=0.5;entryDx=0;entryDy=0;" edge="1" parent="1" source="RqQD2__YrJlT9d0yLTFM-6" target="RqQD2__YrJlT9d0yLTFM-1">
          <mxGeometry relative="1" as="geometry">
            <Array as="points">
              <mxPoint x="313" y="260" />
              <mxPoint x="313" y="170" />
            </Array>
          </mxGeometry>
        </mxCell>
        <mxCell id="RqQD2__YrJlT9d0yLTFM-9" style="edgeStyle=orthogonalEdgeStyle;rounded=0;orthogonalLoop=1;jettySize=auto;html=1;exitX=1;exitY=0.5;exitDx=0;exitDy=0;entryX=0;entryY=0.5;entryDx=0;entryDy=0;" edge="1" parent="1" source="RqQD2__YrJlT9d0yLTFM-6" target="RqQD2__YrJlT9d0yLTFM-2">
          <mxGeometry relative="1" as="geometry" />
        </mxCell>
        <mxCell id="RqQD2__YrJlT9d0yLTFM-10" style="edgeStyle=orthogonalEdgeStyle;rounded=0;orthogonalLoop=1;jettySize=auto;html=1;exitX=1;exitY=0.5;exitDx=0;exitDy=0;entryX=0;entryY=0.75;entryDx=0;entryDy=0;" edge="1" parent="1" source="RqQD2__YrJlT9d0yLTFM-6" target="RqQD2__YrJlT9d0yLTFM-3">
          <mxGeometry relative="1" as="geometry" />
        </mxCell>
        <mxCell id="RqQD2__YrJlT9d0yLTFM-6" value="&lt;font style=&quot;font-size: 15px&quot;&gt;App&lt;/font&gt;" style="rounded=1;whiteSpace=wrap;html=1;" vertex="1" parent="1">
          <mxGeometry x="140" y="230" width="120" height="60" as="geometry" />
        </mxCell>
      </root>
    </mxGraphModel>
  </diagram>
</mxfile>
